# xmcd CD database file
#
# Track frame offsets:
#	150
#	23817
#	47190
#	68962
#	100237
#	118162
#	148320
#	178234
#	201757
#	216369
#	248103
#
# Disc length: 3473 seconds
#
# Revision: 0
# Processed by: cddbd v1.5.2PL0 Copyright (c) Steve Scherf et al.
# Submitted via: CDex 1.51
#
DISCID=af0d8f0b
DTITLE=Marquise Knox - Man Child
DYEAR=2009
DGENRE=Blues
TTITLE0=Love Making Machine 
TTITLE1=You Put Me Down 
TTITLE2=She's the One 
TTITLE3=Sometimes I Wonder
TTITLE4=Problem
TTITLE5=Juke Joint Blues 
TTITLE6=You Need love
TTITLE7=Living to Die
TTITLE8=I Go To Work
TTITLE9=Ice Storm
TTITLE10=Clock on the Wall 
EXTD=YEAR: 2009
EXTT0=
EXTT1=
EXTT2=
EXTT3=
EXTT4=
EXTT5=
EXTT6=
EXTT7=
EXTT8=
EXTT9=
EXTT10=
PLAYORDER=
